<ttFont>
<head>
    <!-- Most of this table will be recalculated by the compiler -->
    <tableVersion value="1.0"/>
    <fontRevision value="1.0"/>
    <checkSumAdjustment value="0x2329002e"/>
    <magicNumber value="0x5f0f3cf5"/>
    <flags value="00000000 00011111"/>
    <unitsPerEm value="1000"/>
    <created value="Tue Jan 17 04:00:36 2017"/>
    <modified value="Tue Jan 17 04:00:36 2017"/>
    <xMin value="-564"/>
    <yMin value="-350"/>
    <xMax value="1304"/>
    <yMax value="850"/>
    <macStyle value="00000000 00000000"/>
    <lowestRecPPEM value="8"/>
    <fontDirectionHint value="2"/>
    <indexToLocFormat value="0"/>
    <glyphDataFormat value="0"/>
  </head>
    <TTGlyph name=".notdef" xMin="50" yMin="0" xMax="200" yMax="533">
      <contour>
        <pt x="50" y="0" on="1"/>
        <pt x="50" y="533" on="1"/>
        <pt x="200" y="533" on="1"/>
        <pt x="200" y="0" on="1"/>
      </contour>
      <contour>
        <pt x="100" y="50" on="1"/>
        <pt x="150" y="50" on="1"/>
        <pt x="150" y="483" on="1"/>
        <pt x="100" y="483" on="1"/>
      </contour>
    </TTGlyph>
    <TTGlyph name="arrowdbldown" xMin="57" yMin="1" xMax="721" yMax="600">
      <contour>
        <pt x="257" y="236" on="1"/>
        <pt x="257" y="600" on="1"/>
        <pt x="300" y="600" on="1"/>
        <pt x="300" y="195" on="1"/>
        <pt x="312" y="183" on="1"/>
        <pt x="344" y="149" on="0"/>
        <pt x="389" y="84" on="1"/>
        <pt x="394" y="90" on="0"/>
        <pt x="399" y="98" on="1"/>
        <pt x="427" y="140" on="0"/>
        <pt x="466" y="183" on="1"/>
        <pt x="478" y="195" on="1"/>
        <pt x="478" y="600" on="1"/>
        <pt x="521" y="600" on="1"/>
        <pt x="521" y="418" on="1"/>
        <pt x="522" y="236" on="1"/>
        <pt x="532" y="244" on="1"/>
        <pt x="597" y="297" on="0"/>
        <pt x="667" y="331" on="1"/>
        <pt x="677" y="336" on="0"/>
        <pt x="718" y="353" on="0"/>
        <pt x="721" y="354" on="1"/>
        <pt x="721" y="311" on="1"/>
        <pt x="708" y="306" on="1"/>
        <pt x="677" y="295" on="0"/>
        <pt x="636" y="271" on="1"/>
        <pt x="477" y="180" on="0"/>
        <pt x="397" y="17" on="1"/>
        <pt x="389" y="1" on="1"/>
        <pt x="385" y="8" on="0"/>
        <pt x="381" y="17" on="1"/>
        <pt x="301" y="180" on="0"/>
        <pt x="142" y="271" on="1"/>
        <pt x="101" y="295" on="0"/>
        <pt x="70" y="306" on="1"/>
        <pt x="57" y="311" on="1"/>
        <pt x="57" y="354" on="1"/>
        <pt x="60" y="353" on="0"/>
        <pt x="101" y="336" on="0"/>
        <pt x="111" y="331" on="1"/>
        <pt x="180" y="298" on="0"/>
        <pt x="247" y="244" on="1"/>
      </contour>
    </TTGlyph>
    <TTGlyph name="arrowdblup" xMin="57" yMin="0" xMax="721" yMax="599">
      <contour>
        <pt x="381" y="583" on="1"/>
        <pt x="389" y="599" on="1"/>
        <pt x="393" y="592" on="0"/>
        <pt x="397" y="583" on="1"/>
        <pt x="477" y="420" on="0"/>
        <pt x="636" y="329" on="1"/>
        <pt x="677" y="305" on="0"/>
        <pt x="708" y="294" on="1"/>
        <pt x="721" y="289" on="1"/>
        <pt x="721" y="246" on="1"/>
        <pt x="718" y="247" on="0"/>
        <pt x="677" y="264" on="0"/>
        <pt x="667" y="269" on="1"/>
        <pt x="597" y="303" on="0"/>
        <pt x="532" y="356" on="1"/>
        <pt x="522" y="364" on="1"/>
        <pt x="521" y="182" on="1"/>
        <pt x="521" y="0" on="1"/>
        <pt x="478" y="0" on="1"/>
        <pt x="478" y="405" on="1"/>
        <pt x="466" y="417" on="1"/>
        <pt x="434" y="451" on="0"/>
        <pt x="389" y="516" on="1"/>
        <pt x="384" y="510" on="0"/>
        <pt x="379" y="502" on="1"/>
        <pt x="351" y="460" on="0"/>
        <pt x="312" y="417" on="1"/>
        <pt x="300" y="405" on="1"/>
        <pt x="300" y="0" on="1"/>
        <pt x="257" y="0" on="1"/>
        <pt x="257" y="364" on="1"/>
        <pt x="247" y="356" on="1"/>
        <pt x="180" y="302" on="0"/>
        <pt x="111" y="269" on="1"/>
        <pt x="101" y="264" on="0"/>
        <pt x="60" y="247" on="0"/>
        <pt x="57" y="246" on="1"/>
        <pt x="57" y="289" on="1"/>
        <pt x="70" y="294" on="1"/>
        <pt x="101" y="305" on="0"/>
        <pt x="142" y="329" on="1"/>
        <pt x="301" y="420" on="0"/>
      </contour>
    </TTGlyph>
    <TTGlyph name="arrowdown" xMin="112" yMin="0" xMax="555" yMax="600">
      <contour>
        <pt x="312" y="96" on="1"/>
        <pt x="312" y="600" on="1"/>
        <pt x="355" y="600" on="1"/>
        <pt x="355" y="96" on="1"/>
        <pt x="368" y="108" on="1"/>
        <pt x="445" y="182" on="0"/>
        <pt x="543" y="219" on="1"/>
        <pt x="555" y="223" on="1"/>
        <pt x="555" y="179" on="1"/>
        <pt x="550" y="177" on="1"/>
        <pt x="419" y="133" on="0"/>
        <pt x="339" y="9" on="1"/>
        <pt x="334" y="0" on="1"/>
        <pt x="327" y="11" on="1"/>
        <pt x="251" y="129" on="0"/>
        <pt x="117" y="177" on="1"/>
        <pt x="112" y="179" on="1"/>
        <pt x="112" y="223" on="1"/>
        <pt x="124" y="219" on="1"/>
        <pt x="222" y="182" on="0"/>
        <pt x="299" y="108" on="1"/>
      </contour>
    </TTGlyph>
    <TTGlyph name="arrowup" xMin="112" yMin="0" xMax="555" yMax="600">
      <contour>
        <pt x="328" y="591" on="1"/>
        <pt x="333" y="600" on="1"/>
        <pt x="340" y="589" on="1"/>
        <pt x="416" y="471" on="0"/>
        <pt x="550" y="423" on="1"/>
        <pt x="555" y="421" on="1"/>
        <pt x="555" y="377" on="1"/>
        <pt x="543" y="381" on="1"/>
        <pt x="445" y="418" on="0"/>
        <pt x="368" y="492" on="1"/>
        <pt x="355" y="504" on="1"/>
        <pt x="355" y="0" on="1"/>
        <pt x="312" y="0" on="1"/>
        <pt x="312" y="504" on="1"/>
        <pt x="299" y="492" on="1"/>
        <pt x="222" y="418" on="0"/>
        <pt x="124" y="381" on="1"/>
        <pt x="112" y="377" on="1"/>
        <pt x="112" y="421" on="1"/>
        <pt x="117" y="423" on="1"/>
        <pt x="248" y="467" on="0"/>
      </contour>
    </TTGlyph>
    <TTGlyph name="backslash" xMin="55" yMin="-349" xMax="522" yMax="850">
      <contour>
        <pt x="522" y="-326" on="1"/>
        <pt x="522" y="-336" on="0"/>
        <pt x="509" y="-349" on="0"/>
        <pt x="500" y="-349" on="1"/>
        <pt x="487" y="-349" on="0"/>
        <pt x="481" y="-337" on="1"/>
        <pt x="477" y="-328" on="0"/>
        <pt x="56" y="824" on="0"/>
        <pt x="55" y="827" on="1"/>
        <pt x="54" y="835" on="0"/>
        <pt x="67" y="850" on="0"/>
        <pt x="76" y="850" on="1"/>
        <pt x="89" y="850" on="0"/>
        <pt x="96" y="838" on="1"/>
        <pt x="100" y="829" on="0"/>
        <pt x="521" y="-323" on="0"/>
      </contour>
    </TTGlyph>
    <TTGlyph name="braceleft" xMin="105" yMin="-349" xMax="477" yMax="850">
      <contour>
        <pt x="477" y="-343" on="1"/>
        <pt x="471" y="-349" on="1"/>
        <pt x="458" y="-349" on="1"/>
        <pt x="444" y="-349" on="0"/>
        <pt x="407" y="-338" on="1"/>
        <pt x="309" y="-309" on="0"/>
        <pt x="273" y="-263" on="1"/>
        <pt x="258" y="-245" on="0"/>
        <pt x="250" y="-212" on="1"/>
        <pt x="249" y="-51" on="1"/>
        <pt x="249" y="-27" on="0"/>
        <pt x="249" y="12" on="1"/>
        <pt x="248" y="118" on="0"/>
        <pt x="244" y="128" on="1"/>
        <pt x="243" y="129" on="0"/>
        <pt x="243" y="130" on="1"/>
        <pt x="224" y="177" on="0"/>
        <pt x="162" y="210" on="1"/>
        <pt x="131" y="224" on="0"/>
        <pt x="121" y="228" on="1"/>
        <pt x="109" y="232" on="0"/>
        <pt x="105" y="238" on="0"/>
        <pt x="105" y="250" on="1"/>
        <pt x="105" y="263" on="0"/>
        <pt x="109" y="268" on="0"/>
        <pt x="121" y="273" on="1"/>
        <pt x="131" y="277" on="0"/>
        <pt x="162" y="291" on="1"/>
        <pt x="224" y="324" on="0"/>
        <pt x="243" y="371" on="1"/>
        <pt x="243" y="372" on="0"/>
        <pt x="244" y="373" on="1"/>
        <pt x="248" y="384" on="0"/>
        <pt x="249" y="469" on="1"/>
        <pt x="249" y="475" on="0"/>
        <pt x="249" y="489" on="1"/>
        <pt x="249" y="528" on="0"/>
        <pt x="249" y="552" on="1"/>
        <pt x="250" y="714" on="1"/>
        <pt x="258" y="744" on="0"/>
        <pt x="273" y="764" on="1"/>
        <pt x="312" y="813" on="0"/>
        <pt x="422" y="843" on="1"/>
        <pt x="440" y="849" on="0"/>
        <pt x="441" y="849" on="1"/>
        <pt x="443" y="849" on="1"/>
        <pt x="445" y="849" on="0"/>
        <pt x="449" y="850" on="0"/>
        <pt x="455" y="850" on="0"/>
        <pt x="457" y="850" on="1"/>
        <pt x="471" y="850" on="1"/>
        <pt x="477" y="844" on="1"/>
        <pt x="477" y="830" on="1"/>
        <pt x="477" y="812" on="0"/>
        <pt x="469" y="810" on="1"/>
        <pt x="425" y="798" on="0"/>
        <pt x="349" y="752" on="0"/>
        <pt x="338" y="724" on="1"/>
        <pt x="333" y="710" on="0"/>
        <pt x="333" y="550" on="1"/>
        <pt x="333" y="395" on="0"/>
        <pt x="332" y="389" on="1"/>
        <pt x="326" y="349" on="0"/>
        <pt x="295" y="318" on="1"/>
        <pt x="257" y="280" on="0"/>
        <pt x="181" y="255" on="1"/>
        <pt x="169" y="251" on="1"/>
        <pt x="184" y="245" on="1"/>
        <pt x="275" y="213" on="0"/>
        <pt x="309" y="167" on="1"/>
        <pt x="327" y="140" on="0"/>
        <pt x="332" y="112" on="1"/>
        <pt x="333" y="106" on="0"/>
        <pt x="333" y="-49" on="1"/>
        <pt x="333" y="-209" on="0"/>
        <pt x="338" y="-223" on="1"/>
        <pt x="349" y="-251" on="0"/>
        <pt x="425" y="-297" on="0"/>
        <pt x="469" y="-309" on="1"/>
        <pt x="477" y="-311" on="0"/>
        <pt x="477" y="-329" on="1"/>
      </contour>
    </TTGlyph>
    <TTGlyph name="braceright" xMin="105" yMin="-349" xMax="477" yMax="850">
      <contour>
        <pt x="110" y="849" on="1"/>
        <pt x="115" y="850" on="1"/>
        <pt x="120" y="850" on="0"/>
        <pt x="125" y="850" on="1"/>
        <pt x="138" y="850" on="0"/>
        <pt x="175" y="839" on="1"/>
        <pt x="273" y="810" on="0"/>
        <pt x="309" y="764" on="1"/>
        <pt x="324" y="747" on="0"/>
        <pt x="332" y="714" on="1"/>
        <pt x="333" y="552" on="1"/>
        <pt x="333" y="528" on="0"/>
        <pt x="333" y="489" on="1"/>
        <pt x="334" y="383" on="0"/>
        <pt x="338" y="373" on="1"/>
        <pt x="339" y="372" on="0"/>
        <pt x="339" y="371" on="1"/>
        <pt x="351" y="340" on="0"/>
        <pt x="425" y="284" on="0"/>
        <pt x="469" y="271" on="1"/>
        <pt x="477" y="268" on="0"/>
        <pt x="477" y="251" on="1"/>
        <pt x="477" y="233" on="0"/>
        <pt x="469" y="230" on="1"/>
        <pt x="425" y="217" on="0"/>
        <pt x="351" y="161" on="0"/>
        <pt x="339" y="130" on="1"/>
        <pt x="339" y="129" on="0"/>
        <pt x="338" y="128" on="1"/>
        <pt x="334" y="117" on="0"/>
        <pt x="333" y="32" on="1"/>
        <pt x="333" y="26" on="0"/>
        <pt x="333" y="12" on="1"/>
        <pt x="333" y="-27" on="0"/>
        <pt x="333" y="-51" on="1"/>
        <pt x="332" y="-212" on="1"/>
        <pt x="324" y="-245" on="0"/>
        <pt x="309" y="-263" on="1"/>
        <pt x="273" y="-309" on="0"/>
        <pt x="175" y="-338" on="1"/>
        <pt x="139" y="-349" on="0"/>
        <pt x="111" y="-349" on="0"/>
        <pt x="105" y="-343" on="0"/>
        <pt x="105" y="-329" on="1"/>
        <pt x="105" y="-316" on="0"/>
        <pt x="106" y="-314" on="1"/>
        <pt x="109" y="-310" on="0"/>
        <pt x="130" y="-304" on="1"/>
        <pt x="192" y="-284" on="0"/>
        <pt x="222" y="-254" on="1"/>
        <pt x="242" y="-234" on="0"/>
        <pt x="248" y="-209" on="1"/>
        <pt x="249" y="-203" on="0"/>
        <pt x="249" y="-49" on="1"/>
        <pt x="249" y="106" on="0"/>
        <pt x="250" y="112" on="1"/>
        <pt x="255" y="140" on="0"/>
        <pt x="273" y="167" on="1"/>
        <pt x="307" y="213" on="0"/>
        <pt x="398" y="245" on="1"/>
        <pt x="413" y="251" on="1"/>
        <pt x="401" y="255" on="1"/>
        <pt x="309" y="286" on="0"/>
        <pt x="273" y="334" on="1"/>
        <pt x="255" y="361" on="0"/>
        <pt x="250" y="389" on="1"/>
        <pt x="249" y="395" on="0"/>
        <pt x="249" y="550" on="1"/>
        <pt x="249" y="710" on="0"/>
        <pt x="244" y="724" on="1"/>
        <pt x="224" y="774" on="0"/>
        <pt x="130" y="805" on="1"/>
        <pt x="126" y="806" on="0"/>
        <pt x="119" y="808" on="0"/>
        <pt x="113" y="811" on="0"/>
        <pt x="112" y="811" on="1"/>
        <pt x="105" y="813" on="0"/>
        <pt x="105" y="830" on="1"/>
        <pt x="105" y="845" on="0"/>
      </contour>
    </TTGlyph>
    <TTGlyph name="bracketleft" xMin="202" yMin="-349" xMax="394" yMax="850">
      <contour>
        <pt x="202" y="-349" on="1"/>
        <pt x="202" y="850" on="1"/>
        <pt x="394" y="850" on="1"/>
        <pt x="394" y="810" on="1"/>
        <pt x="242" y="810" on="1"/>
        <pt x="242" y="-309" on="1"/>
        <pt x="394" y="-309" on="1"/>
        <pt x="394" y="-349" on="1"/>
      </contour>
    </TTGlyph>
    <TTGlyph name="bracketright" xMin="22" yMin="-349" xMax="214" yMax="850">
      <contour>
        <pt x="22" y="810" on="1"/>
        <pt x="22" y="850" on="1"/>
        <pt x="214" y="850" on="1"/>
        <pt x="214" y="-349" on="1"/>
        <pt x="22" y="-349" on="1"/>
        <pt x="22" y="-309" on="1"/>
        <pt x="174" y="-309" on="1"/>
        <pt x="174" y="810" on="1"/>
      </contour>
    </TTGlyph>
    <TTGlyph name="circumflex" xMin="-8" yMin="551" xMax="564" yMax="744">
      <contour>
        <pt x="279" y="669" on="1"/>
        <pt x="273" y="669" on="0"/>
        <pt x="10" y="551" on="0"/>
        <pt x="9" y="551" on="1"/>
        <pt x="0" y="569" on="1"/>
        <pt x="-8" y="585" on="0"/>
        <pt x="-8" y="587" on="1"/>
        <pt x="-8" y="588" on="0"/>
        <pt x="-7" y="588" on="1"/>
        <pt x="12" y="598" on="1"/>
        <pt x="30" y="608" on="0"/>
        <pt x="103" y="648" on="0"/>
        <pt x="136" y="666" on="1"/>
        <pt x="277" y="744" on="1"/>
        <pt x="280" y="742" on="0"/>
        <pt x="558" y="591" on="0"/>
        <pt x="564" y="587" on="1"/>
        <pt x="555" y="569" on="1"/>
        <pt x="549" y="556" on="0"/>
        <pt x="545" y="551" on="0"/>
        <pt x="544" y="552" on="1"/>
        <pt x="539" y="555" on="0"/>
        <pt x="282" y="669" on="0"/>
      </contour>
    </TTGlyph>
    <TTGlyph name="integral" xMin="55" yMin="-306" xMax="610" yMax="805">
      <contour>
        <pt x="83" y="-146" on="0"/>
        <pt x="125" y="-146" on="0"/>
        <pt x="153" y="-175" on="0"/>
        <pt x="153" y="-195" on="1"/>
        <pt x="153" y="-225" on="0"/>
        <pt x="129" y="-237" on="1"/>
        <pt x="128" y="-238" on="0"/>
        <pt x="120" y="-241" on="0"/>
        <pt x="116" y="-242" on="1"/>
        <pt x="113" y="-244" on="1"/>
        <pt x="113" y="-245" on="0"/>
        <pt x="124" y="-255" on="0"/>
        <pt x="128" y="-257" on="1"/>
        <pt x="144" y="-269" on="0"/>
        <pt x="167" y="-269" on="1"/>
        <pt x="186" y="-269" on="0"/>
        <pt x="199" y="-260" on="1"/>
        <pt x="223" y="-246" on="0"/>
        <pt x="235" y="-208" on="1"/>
        <pt x="252" y="-160" on="0"/>
        <pt x="267" y="47" on="1"/>
        <pt x="281" y="237" on="0"/>
        <pt x="297" y="367" on="1"/>
        <pt x="323" y="570" on="0"/>
        <pt x="327" y="591" on="1"/>
        <pt x="352" y="735" on="0"/>
        <pt x="424" y="782" on="1"/>
        <pt x="449" y="798" on="0"/>
        <pt x="479" y="804" on="1"/>
        <pt x="481" y="804" on="0"/>
        <pt x="496" y="805" on="0"/>
        <pt x="501" y="805" on="1"/>
        <pt x="548" y="802" on="0"/>
        <pt x="610" y="741" on="0"/>
        <pt x="610" y="695" on="1"/>
        <pt x="610" y="673" on="0"/>
        <pt x="582" y="645" on="0"/>
        <pt x="540" y="645" on="0"/>
        <pt x="512" y="674" on="0"/>
        <pt x="512" y="694" on="1"/>
        <pt x="512" y="724" on="0"/>
        <pt x="536" y="736" on="1"/>
        <pt x="537" y="737" on="0"/>
        <pt x="545" y="740" on="0"/>
        <pt x="548" y="742" on="1"/>
        <pt x="552" y="743" on="1"/>
        <pt x="552" y="748" on="0"/>
        <pt x="537" y="756" on="1"/>
        <pt x="520" y="768" on="0"/>
        <pt x="498" y="768" on="1"/>
        <pt x="454" y="768" on="0"/>
        <pt x="434" y="716" on="1"/>
        <pt x="422" y="687" on="0"/>
        <pt x="409" y="586" on="0"/>
        <pt x="399" y="452" on="1"/>
        <pt x="385" y="264" on="0"/>
        <pt x="369" y="133" on="1"/>
        <pt x="349" y="-39" on="0"/>
        <pt x="339" y="-91" on="1"/>
        <pt x="326" y="-162" on="0"/>
        <pt x="303" y="-207" on="1"/>
        <pt x="274" y="-269" on="0"/>
        <pt x="225" y="-293" on="1"/>
        <pt x="199" y="-306" on="0"/>
        <pt x="169" y="-306" on="1"/>
        <pt x="97" y="-306" on="0"/>
        <pt x="67" y="-244" on="1"/>
        <pt x="55" y="-223" on="0"/>
        <pt x="55" y="-196" on="1"/>
        <pt x="55" y="-174" on="0"/>
      </contour>
    </TTGlyph>
    <TTGlyph name="parenleft" xMin="152" yMin="-349" xMax="422" yMax="850">
      <contour>
        <pt x="152" y="251" on="1"/>
        <pt x="152" y="448" on="0"/>
        <pt x="275" y="753" on="0"/>
        <pt x="388" y="850" on="1"/>
        <pt x="416" y="850" on="1"/>
        <pt x="422" y="844" on="0"/>
        <pt x="422" y="841" on="1"/>
        <pt x="422" y="837" on="0"/>
        <pt x="412" y="826" on="1"/>
        <pt x="236" y="628" on="0"/>
        <pt x="236" y="250" on="1"/>
        <pt x="236" y="-125" on="0"/>
        <pt x="412" y="-325" on="1"/>
        <pt x="422" y="-336" on="0"/>
        <pt x="422" y="-340" on="1"/>
        <pt x="422" y="-343" on="0"/>
        <pt x="416" y="-349" on="1"/>
        <pt x="388" y="-349" on="1"/>
        <pt x="275" y="-252" on="0"/>
        <pt x="152" y="53" on="0"/>
      </contour>
    </TTGlyph>
    <TTGlyph name="parenright" xMin="35" yMin="-349" xMax="305" yMax="850">
      <contour>
        <pt x="305" y="251" on="1"/>
        <pt x="305" y="52" on="0"/>
        <pt x="183" y="-252" on="0"/>
        <pt x="69" y="-349" on="1"/>
        <pt x="56" y="-349" on="1"/>
        <pt x="43" y="-349" on="0"/>
        <pt x="35" y="-345" on="0"/>
        <pt x="35" y="-338" on="1"/>
        <pt x="37" y="-333" on="0"/>
        <pt x="47" y="-322" on="1"/>
        <pt x="221" y="-126" on="0"/>
        <pt x="221" y="250" on="1"/>
        <pt x="221" y="627" on="0"/>
        <pt x="47" y="823" on="1"/>
        <pt x="37" y="834" on="0"/>
        <pt x="35" y="839" on="1"/>
        <pt x="35" y="847" on="0"/>
        <pt x="43" y="850" on="0"/>
        <pt x="56" y="850" on="1"/>
        <pt x="69" y="850" on="1"/>
        <pt x="182" y="753" on="0"/>
        <pt x="305" y="448" on="0"/>
      </contour>
    </TTGlyph>
    <TTGlyph name="product" xMin="55" yMin="-250" xMax="888" yMax="750">
      <contour>
        <pt x="786" y="-155" on="1"/>
        <pt x="798" y="-206" on="0"/>
        <pt x="874" y="-210" on="1"/>
        <pt x="888" y="-210" on="1"/>
        <pt x="888" y="-250" on="1"/>
        <pt x="570" y="-250" on="1"/>
        <pt x="570" y="-210" on="1"/>
        <pt x="584" y="-210" on="1"/>
        <pt x="654" y="-206" on="0"/>
        <pt x="670" y="-163" on="1"/>
        <pt x="673" y="-155" on="1"/>
        <pt x="673" y="710" on="1"/>
        <pt x="270" y="710" on="1"/>
        <pt x="270" y="277" on="1"/>
        <pt x="271" y="-155" on="1"/>
        <pt x="283" y="-206" on="0"/>
        <pt x="359" y="-210" on="1"/>
        <pt x="373" y="-210" on="1"/>
        <pt x="373" y="-250" on="1"/>
        <pt x="55" y="-250" on="1"/>
        <pt x="55" y="-210" on="1"/>
        <pt x="69" y="-210" on="1"/>
        <pt x="139" y="-206" on="0"/>
        <pt x="155" y="-163" on="1"/>
        <pt x="158" y="-155" on="1"/>
        <pt x="158" y="656" on="1"/>
        <pt x="155" y="663" on="1"/>
        <pt x="139" y="706" on="0"/>
        <pt x="69" y="710" on="1"/>
        <pt x="55" y="710" on="1"/>
        <pt x="55" y="750" on="1"/>
        <pt x="888" y="750" on="1"/>
        <pt x="888" y="710" on="1"/>
        <pt x="874" y="710" on="1"/>
        <pt x="834" y="708" on="0"/>
        <pt x="793" y="683" on="0"/>
        <pt x="786" y="656" on="1"/>
      </contour>
    </TTGlyph>
    <TTGlyph name="radical" xMin="111" yMin="-350" xMax="1020" yMax="850">
      <contour>
        <pt x="263" y="249" on="1"/>
        <pt x="264" y="249" on="0"/>
        <pt x="366" y="11" on="0"/>
        <pt x="469" y="-227" on="0"/>
        <pt x="470" y="-228" on="1"/>
        <pt x="980" y="829" on="0"/>
        <pt x="982" y="839" on="1"/>
        <pt x="989" y="850" on="0"/>
        <pt x="1001" y="850" on="1"/>
        <pt x="1017" y="850" on="0"/>
        <pt x="1020" y="832" on="1"/>
        <pt x="1020" y="826" on="1"/>
        <pt x="741" y="243" on="1"/>
        <pt x="683" y="122" on="0"/>
        <pt x="527" y="-202" on="0"/>
        <pt x="460" y="-342" on="0"/>
        <pt x="459" y="-343" on="1"/>
        <pt x="452" y="-350" on="0"/>
        <pt x="436" y="-350" on="1"/>
        <pt x="424" y="-349" on="1"/>
        <pt x="315" y="-96" on="1"/>
        <pt x="206" y="156" on="0"/>
        <pt x="205" y="156" on="1"/>
        <pt x="189" y="144" on="0"/>
        <pt x="171" y="130" on="1"/>
        <pt x="138" y="104" on="0"/>
        <pt x="137" y="104" on="1"/>
        <pt x="111" y="130" on="1"/>
        <pt x="187" y="189" on="1"/>
      </contour>
    </TTGlyph>
    <TTGlyph name="slash" xMin="55" yMin="-349" xMax="522" yMax="850">
      <contour>
        <pt x="481" y="838" on="1"/>
        <pt x="489" y="850" on="0"/>
        <pt x="500" y="850" on="1"/>
        <pt x="509" y="850" on="0"/>
        <pt x="522" y="837" on="0"/>
        <pt x="522" y="827" on="1"/>
        <pt x="521" y="824" on="0"/>
        <pt x="100" y="-328" on="0"/>
        <pt x="96" y="-337" on="1"/>
        <pt x="90" y="-349" on="0"/>
        <pt x="77" y="-349" on="1"/>
        <pt x="68" y="-349" on="0"/>
        <pt x="55" y="-336" on="0"/>
        <pt x="55" y="-326" on="1"/>
        <pt x="56" y="-323" on="0"/>
        <pt x="477" y="829" on="0"/>
      </contour>
    </TTGlyph>
    <TTGlyph name="summation" xMin="56" yMin="-250" xMax="999" yMax="750">
      <contour>
        <pt x="61" y="748" on="1"/>
        <pt x="64" y="750" on="0"/>
        <pt x="489" y="750" on="1"/>
        <pt x="913" y="750" on="1"/>
        <pt x="954" y="640" on="1"/>
        <pt x="964" y="613" on="0"/>
        <pt x="987" y="551" on="0"/>
        <pt x="997" y="522" on="0"/>
        <pt x="999" y="516" on="1"/>
        <pt x="979" y="516" on="1"/>
        <pt x="959" y="517" on="1"/>
        <pt x="937" y="575" on="0"/>
        <pt x="840" y="662" on="0"/>
        <pt x="777" y="682" on="1"/>
        <pt x="722" y="701" on="0"/>
        <pt x="620" y="708" on="1"/>
        <pt x="590" y="710" on="0"/>
        <pt x="319" y="710" on="1"/>
        <pt x="183" y="710" on="0"/>
        <pt x="183" y="709" on="1"/>
        <pt x="186" y="706" on="0"/>
        <pt x="510" y="261" on="0"/>
        <pt x="511" y="259" on="1"/>
        <pt x="517" y="250" on="0"/>
        <pt x="513" y="244" on="1"/>
        <pt x="149" y="-187" on="1"/>
        <pt x="149" y="-188" on="0"/>
        <pt x="362" y="-188" on="1"/>
        <pt x="583" y="-188" on="0"/>
        <pt x="598" y="-187" on="1"/>
        <pt x="704" y="-183" on="0"/>
        <pt x="767" y="-165" on="1"/>
        <pt x="879" y="-133" on="0"/>
        <pt x="936" y="-43" on="1"/>
        <pt x="946" y="-27" on="0"/>
        <pt x="959" y="6" on="1"/>
        <pt x="999" y="6" on="1"/>
        <pt x="984" y="-37" on="0"/>
        <pt x="927" y="-207" on="0"/>
        <pt x="913" y="-249" on="1"/>
        <pt x="489" y="-250" on="1"/>
        <pt x="65" y="-250" on="0"/>
        <pt x="62" y="-248" on="1"/>
        <pt x="56" y="-246" on="0"/>
        <pt x="56" y="-239" on="1"/>
        <pt x="56" y="-236" on="0"/>
        <pt x="59" y="-232" on="1"/>
        <pt x="60" y="-230" on="0"/>
        <pt x="244" y="-12" on="0"/>
        <pt x="336" y="97" on="1"/>
        <pt x="428" y="206" on="1"/>
        <pt x="428" y="207" on="0"/>
        <pt x="242" y="462" on="1"/>
        <pt x="57" y="717" on="1"/>
        <pt x="56" y="728" on="1"/>
        <pt x="56" y="744" on="0"/>
      </contour>
    </TTGlyph>
    <TTGlyph name="tilde" xMin="1" yMin="597" xMax="554" yMax="722">
      <contour>
        <pt x="55" y="671" on="1"/>
        <pt x="120" y="722" on="0"/>
        <pt x="182" y="722" on="1"/>
        <pt x="195" y="722" on="0"/>
        <pt x="200" y="721" on="1"/>
        <pt x="236" y="715" on="0"/>
        <pt x="285" y="692" on="1"/>
        <pt x="344" y="666" on="0"/>
        <pt x="381" y="662" on="1"/>
        <pt x="386" y="661" on="0"/>
        <pt x="395" y="661" on="1"/>
        <pt x="454" y="661" on="0"/>
        <pt x="521" y="713" on="1"/>
        <pt x="531" y="722" on="1"/>
        <pt x="543" y="708" on="1"/>
        <pt x="554" y="695" on="0"/>
        <pt x="554" y="693" on="1"/>
        <pt x="554" y="690" on="0"/>
        <pt x="527" y="668" on="0"/>
        <pt x="514" y="658" on="1"/>
        <pt x="500" y="648" on="1"/>
        <pt x="434" y="597" on="0"/>
        <pt x="374" y="597" on="1"/>
        <pt x="357" y="597" on="0"/>
        <pt x="335" y="602" on="1"/>
        <pt x="310" y="609" on="0"/>
        <pt x="270" y="627" on="1"/>
        <pt x="211" y="653" on="0"/>
        <pt x="175" y="657" on="1"/>
        <pt x="170" y="658" on="0"/>
        <pt x="160" y="658" on="1"/>
        <pt x="101" y="658" on="0"/>
        <pt x="34" y="606" on="1"/>
        <pt x="24" y="597" on="1"/>
        <pt x="12" y="611" on="1"/>
        <pt x="1" y="624" on="0"/>
        <pt x="1" y="626" on="1"/>
        <pt x="1" y="629" on="0"/>
        <pt x="28" y="651" on="0"/>
        <pt x="42" y="661" on="1"/>
      </contour>
    </TTGlyph>
    <TTGlyph name="tildecomb" xMin="-555" yMin="597" xMax="-2" yMax="722">
      <contour>
        <pt x="-501" y="671" on="1"/>
        <pt x="-436" y="722" on="0"/>
        <pt x="-374" y="722" on="1"/>
        <pt x="-361" y="722" on="0"/>
        <pt x="-356" y="721" on="1"/>
        <pt x="-320" y="715" on="0"/>
        <pt x="-271" y="692" on="1"/>
        <pt x="-212" y="666" on="0"/>
        <pt x="-175" y="662" on="1"/>
        <pt x="-170" y="661" on="0"/>
        <pt x="-161" y="661" on="1"/>
        <pt x="-102" y="661" on="0"/>
        <pt x="-35" y="713" on="1"/>
        <pt x="-25" y="722" on="1"/>
        <pt x="-13" y="708" on="1"/>
        <pt x="-2" y="695" on="0"/>
        <pt x="-2" y="693" on="1"/>
        <pt x="-2" y="690" on="0"/>
        <pt x="-29" y="668" on="0"/>
        <pt x="-42" y="658" on="1"/>
        <pt x="-56" y="648" on="1"/>
        <pt x="-122" y="597" on="0"/>
        <pt x="-182" y="597" on="1"/>
        <pt x="-199" y="597" on="0"/>
        <pt x="-221" y="602" on="1"/>
        <pt x="-246" y="609" on="0"/>
        <pt x="-286" y="627" on="1"/>
        <pt x="-345" y="653" on="0"/>
        <pt x="-381" y="657" on="1"/>
        <pt x="-386" y="658" on="0"/>
        <pt x="-396" y="658" on="1"/>
        <pt x="-455" y="658" on="0"/>
        <pt x="-522" y="606" on="1"/>
        <pt x="-532" y="597" on="1"/>
        <pt x="-544" y="611" on="1"/>
        <pt x="-555" y="624" on="0"/>
        <pt x="-555" y="626" on="1"/>
        <pt x="-555" y="629" on="0"/>
        <pt x="-528" y="651" on="0"/>
        <pt x="-514" y="661" on="1"/>
      </contour>
    </TTGlyph>
    <TTGlyph name="uni0302" xMin="-564" yMin="551" xMax="8" yMax="744">
      <contour>
        <pt x="-277" y="669" on="1"/>
        <pt x="-283" y="669" on="0"/>
        <pt x="-546" y="551" on="0"/>
        <pt x="-547" y="551" on="1"/>
        <pt x="-556" y="569" on="1"/>
        <pt x="-564" y="585" on="0"/>
        <pt x="-564" y="587" on="1"/>
        <pt x="-564" y="588" on="0"/>
        <pt x="-563" y="588" on="1"/>
        <pt x="-544" y="598" on="1"/>
        <pt x="-526" y="608" on="0"/>
        <pt x="-453" y="648" on="0"/>
        <pt x="-420" y="666" on="1"/>
        <pt x="-279" y="744" on="1"/>
        <pt x="-276" y="742" on="0"/>
        <pt x="2" y="591" on="0"/>
        <pt x="8" y="587" on="1"/>
        <pt x="-1" y="569" on="1"/>
        <pt x="-7" y="556" on="0"/>
        <pt x="-11" y="551" on="0"/>
        <pt x="-12" y="552" on="1"/>
        <pt x="-17" y="555" on="0"/>
        <pt x="-274" y="669" on="0"/>
      </contour>
    </TTGlyph>
    <TTGlyph name="uni2016" xMin="257" yMin="0" xMax="521" yMax="602">
      <contour>
        <pt x="257" y="0" on="1"/>
        <pt x="257" y="602" on="1"/>
        <pt x="300" y="602" on="1"/>
        <pt x="300" y="0" on="1"/>
      </contour>
      <contour>
        <pt x="478" y="0" on="1"/>
        <pt x="478" y="602" on="1"/>
        <pt x="521" y="602" on="1"/>
        <pt x="521" y="0" on="1"/>
      </contour>
    </TTGlyph>
    <TTGlyph name="uni2210" xMin="55" yMin="-250" xMax="888" yMax="750">
      <contour>
        <pt x="786" y="-155" on="1"/>
        <pt x="798" y="-206" on="0"/>
        <pt x="874" y="-210" on="1"/>
        <pt x="888" y="-210" on="1"/>
        <pt x="888" y="-250" on="1"/>
        <pt x="55" y="-250" on="1"/>
        <pt x="55" y="-210" on="1"/>
        <pt x="69" y="-210" on="1"/>
        <pt x="139" y="-206" on="0"/>
        <pt x="155" y="-163" on="1"/>
        <pt x="158" y="-155" on="1"/>
        <pt x="158" y="656" on="1"/>
        <pt x="155" y="663" on="1"/>
        <pt x="139" y="706" on="0"/>
        <pt x="69" y="710" on="1"/>
        <pt x="55" y="710" on="1"/>
        <pt x="55" y="750" on="1"/>
        <pt x="373" y="750" on="1"/>
        <pt x="373" y="710" on="1"/>
        <pt x="359" y="710" on="1"/>
        <pt x="319" y="708" on="0"/>
        <pt x="278" y="683" on="0"/>
        <pt x="271" y="656" on="1"/>
        <pt x="270" y="223" on="1"/>
        <pt x="270" y="-210" on="1"/>
        <pt x="673" y="-210" on="1"/>
        <pt x="673" y="656" on="1"/>
        <pt x="670" y="663" on="1"/>
        <pt x="654" y="706" on="0"/>
        <pt x="584" y="710" on="1"/>
        <pt x="570" y="710" on="1"/>
        <pt x="570" y="750" on="1"/>
        <pt x="888" y="750" on="1"/>
        <pt x="888" y="710" on="1"/>
        <pt x="874" y="710" on="1"/>
        <pt x="834" y="708" on="0"/>
        <pt x="793" y="683" on="0"/>
        <pt x="786" y="656" on="1"/>
      </contour>
    </TTGlyph>
    <TTGlyph name="uni2223" xMin="145" yMin="-15" xMax="188" yMax="627">
      <contour>
        <pt x="146" y="612" on="1"/>
        <pt x="150" y="627" on="0"/>
        <pt x="182" y="627" on="0"/>
        <pt x="187" y="612" on="1"/>
        <pt x="188" y="610" on="0"/>
        <pt x="188" y="2" on="0"/>
        <pt x="187" y="0" on="1"/>
        <pt x="184" y="-15" on="0"/>
        <pt x="166" y="-15" on="1"/>
        <pt x="149" y="-15" on="0"/>
        <pt x="146" y="0" on="1"/>
        <pt x="146" y="10" on="1"/>
        <pt x="146" y="19" on="0"/>
        <pt x="146" y="52" on="0"/>
        <pt x="146" y="95" on="0"/>
        <pt x="145" y="150" on="0"/>
        <pt x="145" y="208" on="0"/>
        <pt x="145" y="275" on="0"/>
        <pt x="145" y="337" on="0"/>
        <pt x="145" y="404" on="0"/>
        <pt x="145" y="462" on="0"/>
        <pt x="146" y="517" on="0"/>
        <pt x="146" y="560" on="0"/>
        <pt x="146" y="593" on="0"/>
        <pt x="146" y="602" on="1"/>
      </contour>
    </TTGlyph>
    <TTGlyph name="uni2225" xMin="145" yMin="-15" xMax="410" yMax="627">
      <contour>
        <pt x="146" y="612" on="1"/>
        <pt x="150" y="627" on="0"/>
        <pt x="182" y="627" on="0"/>
        <pt x="187" y="612" on="1"/>
        <pt x="188" y="610" on="0"/>
        <pt x="188" y="2" on="0"/>
        <pt x="187" y="0" on="1"/>
        <pt x="184" y="-15" on="0"/>
        <pt x="166" y="-15" on="1"/>
        <pt x="149" y="-15" on="0"/>
        <pt x="146" y="0" on="1"/>
        <pt x="146" y="10" on="1"/>
        <pt x="146" y="19" on="0"/>
        <pt x="146" y="52" on="0"/>
        <pt x="146" y="95" on="0"/>
        <pt x="145" y="150" on="0"/>
        <pt x="145" y="208" on="0"/>
        <pt x="145" y="275" on="0"/>
        <pt x="145" y="337" on="0"/>
        <pt x="145" y="404" on="0"/>
        <pt x="145" y="462" on="0"/>
        <pt x="146" y="517" on="0"/>
        <pt x="146" y="560" on="0"/>
        <pt x="146" y="593" on="0"/>
        <pt x="146" y="602" on="1"/>
      </contour>
      <contour>
        <pt x="368" y="612" on="1"/>
        <pt x="372" y="627" on="0"/>
        <pt x="404" y="627" on="0"/>
        <pt x="409" y="612" on="1"/>
        <pt x="410" y="610" on="0"/>
        <pt x="410" y="2" on="0"/>
        <pt x="409" y="0" on="1"/>
        <pt x="406" y="-15" on="0"/>
        <pt x="389" y="-15" on="1"/>
        <pt x="371" y="-15" on="0"/>
        <pt x="368" y="0" on="1"/>
        <pt x="368" y="10" on="1"/>
        <pt x="368" y="19" on="0"/>
        <pt x="368" y="52" on="0"/>
        <pt x="368" y="95" on="0"/>
        <pt x="367" y="150" on="0"/>
        <pt x="367" y="208" on="0"/>
        <pt x="367" y="275" on="0"/>
        <pt x="367" y="337" on="0"/>
        <pt x="367" y="404" on="0"/>
        <pt x="367" y="462" on="0"/>
        <pt x="368" y="517" on="0"/>
        <pt x="368" y="560" on="0"/>
        <pt x="368" y="593" on="0"/>
        <pt x="368" y="602" on="1"/>
      </contour>
    </TTGlyph>
    <TTGlyph name="uni222C" xMin="55" yMin="-306" xMax="957" yMax="805">
      <contour>
        <pt x="83" y="-146" on="0"/>
        <pt x="125" y="-146" on="0"/>
        <pt x="153" y="-175" on="0"/>
        <pt x="153" y="-195" on="1"/>
        <pt x="153" y="-225" on="0"/>
        <pt x="129" y="-237" on="1"/>
        <pt x="128" y="-238" on="0"/>
        <pt x="120" y="-241" on="0"/>
        <pt x="116" y="-242" on="1"/>
        <pt x="113" y="-244" on="1"/>
        <pt x="113" y="-245" on="0"/>
        <pt x="124" y="-255" on="0"/>
        <pt x="128" y="-257" on="1"/>
        <pt x="144" y="-269" on="0"/>
        <pt x="167" y="-269" on="1"/>
        <pt x="186" y="-269" on="0"/>
        <pt x="199" y="-260" on="1"/>
        <pt x="223" y="-246" on="0"/>
        <pt x="235" y="-208" on="1"/>
        <pt x="252" y="-160" on="0"/>
        <pt x="267" y="47" on="1"/>
        <pt x="281" y="237" on="0"/>
        <pt x="297" y="367" on="1"/>
        <pt x="323" y="570" on="0"/>
        <pt x="327" y="591" on="1"/>
        <pt x="352" y="735" on="0"/>
        <pt x="424" y="782" on="1"/>
        <pt x="449" y="798" on="0"/>
        <pt x="479" y="804" on="1"/>
        <pt x="481" y="804" on="0"/>
        <pt x="496" y="805" on="0"/>
        <pt x="501" y="805" on="1"/>
        <pt x="548" y="802" on="0"/>
        <pt x="610" y="741" on="0"/>
        <pt x="610" y="695" on="1"/>
        <pt x="610" y="673" on="0"/>
        <pt x="582" y="645" on="0"/>
        <pt x="540" y="645" on="0"/>
        <pt x="512" y="674" on="0"/>
        <pt x="512" y="694" on="1"/>
        <pt x="512" y="724" on="0"/>
        <pt x="536" y="736" on="1"/>
        <pt x="537" y="737" on="0"/>
        <pt x="545" y="740" on="0"/>
        <pt x="548" y="742" on="1"/>
        <pt x="552" y="743" on="1"/>
        <pt x="552" y="748" on="0"/>
        <pt x="537" y="756" on="1"/>
        <pt x="520" y="768" on="0"/>
        <pt x="498" y="768" on="1"/>
        <pt x="454" y="768" on="0"/>
        <pt x="434" y="716" on="1"/>
        <pt x="422" y="687" on="0"/>
        <pt x="409" y="586" on="0"/>
        <pt x="399" y="452" on="1"/>
        <pt x="385" y="264" on="0"/>
        <pt x="369" y="133" on="1"/>
        <pt x="349" y="-39" on="0"/>
        <pt x="339" y="-91" on="1"/>
        <pt x="326" y="-162" on="0"/>
        <pt x="303" y="-207" on="1"/>
        <pt x="274" y="-269" on="0"/>
        <pt x="225" y="-293" on="1"/>
        <pt x="199" y="-306" on="0"/>
        <pt x="169" y="-306" on="1"/>
        <pt x="97" y="-306" on="0"/>
        <pt x="67" y="-244" on="1"/>
        <pt x="55" y="-223" on="0"/>
        <pt x="55" y="-196" on="1"/>
        <pt x="55" y="-174" on="0"/>
      </contour>
      <contour>
        <pt x="430" y="-146" on="0"/>
        <pt x="472" y="-146" on="0"/>
        <pt x="500" y="-175" on="0"/>
        <pt x="500" y="-195" on="1"/>
        <pt x="500" y="-225" on="0"/>
        <pt x="476" y="-237" on="1"/>
        <pt x="475" y="-238" on="0"/>
        <pt x="467" y="-241" on="0"/>
        <pt x="464" y="-242" on="1"/>
        <pt x="460" y="-244" on="1"/>
        <pt x="460" y="-245" on="0"/>
        <pt x="471" y="-255" on="0"/>
        <pt x="475" y="-257" on="1"/>
        <pt x="492" y="-269" on="0"/>
        <pt x="514" y="-269" on="1"/>
        <pt x="532" y="-269" on="0"/>
        <pt x="546" y="-260" on="1"/>
        <pt x="570" y="-246" on="0"/>
        <pt x="582" y="-208" on="1"/>
        <pt x="599" y="-160" on="0"/>
        <pt x="614" y="47" on="1"/>
        <pt x="628" y="237" on="0"/>
        <pt x="644" y="367" on="1"/>
        <pt x="670" y="570" on="0"/>
        <pt x="674" y="591" on="1"/>
        <pt x="699" y="735" on="0"/>
        <pt x="771" y="782" on="1"/>
        <pt x="796" y="798" on="0"/>
        <pt x="826" y="804" on="1"/>
        <pt x="828" y="804" on="0"/>
        <pt x="843" y="805" on="0"/>
        <pt x="848" y="805" on="1"/>
        <pt x="895" y="802" on="0"/>
        <pt x="957" y="741" on="0"/>
        <pt x="957" y="695" on="1"/>
        <pt x="957" y="673" on="0"/>
        <pt x="929" y="645" on="0"/>
        <pt x="887" y="645" on="0"/>
        <pt x="859" y="674" on="0"/>
        <pt x="859" y="694" on="1"/>
        <pt x="859" y="724" on="0"/>
        <pt x="883" y="736" on="1"/>
        <pt x="884" y="737" on="0"/>
        <pt x="892" y="740" on="0"/>
        <pt x="896" y="742" on="1"/>
        <pt x="899" y="743" on="1"/>
        <pt x="899" y="748" on="0"/>
        <pt x="884" y="756" on="1"/>
        <pt x="868" y="768" on="0"/>
        <pt x="845" y="768" on="1"/>
        <pt x="801" y="768" on="0"/>
        <pt x="781" y="716" on="1"/>
        <pt x="769" y="687" on="0"/>
        <pt x="756" y="586" on="0"/>
        <pt x="746" y="452" on="1"/>
        <pt x="732" y="264" on="0"/>
        <pt x="716" y="133" on="1"/>
        <pt x="696" y="-39" on="0"/>
        <pt x="686" y="-91" on="1"/>
        <pt x="673" y="-162" on="0"/>
        <pt x="650" y="-207" on="1"/>
        <pt x="621" y="-269" on="0"/>
        <pt x="572" y="-293" on="1"/>
        <pt x="546" y="-306" on="0"/>
        <pt x="516" y="-306" on="1"/>
        <pt x="444" y="-306" on="0"/>
        <pt x="414" y="-244" on="1"/>
        <pt x="402" y="-223" on="0"/>
        <pt x="402" y="-196" on="1"/>
        <pt x="402" y="-174" on="0"/>
      </contour>
    </TTGlyph>
    <TTGlyph name="uni222D" xMin="55" yMin="-306" xMax="1304" yMax="805">
      <contour>
        <pt x="83" y="-146" on="0"/>
        <pt x="125" y="-146" on="0"/>
        <pt x="153" y="-175" on="0"/>
        <pt x="153" y="-195" on="1"/>
        <pt x="153" y="-225" on="0"/>
        <pt x="129" y="-237" on="1"/>
        <pt x="128" y="-238" on="0"/>
        <pt x="120" y="-241" on="0"/>
        <pt x="116" y="-242" on="1"/>
        <pt x="113" y="-244" on="1"/>
        <pt x="113" y="-245" on="0"/>
        <pt x="124" y="-255" on="0"/>
        <pt x="128" y="-257" on="1"/>
        <pt x="144" y="-269" on="0"/>
        <pt x="167" y="-269" on="1"/>
        <pt x="186" y="-269" on="0"/>
        <pt x="199" y="-260" on="1"/>
        <pt x="223" y="-246" on="0"/>
        <pt x="235" y="-208" on="1"/>
        <pt x="252" y="-160" on="0"/>
        <pt x="267" y="47" on="1"/>
        <pt x="281" y="237" on="0"/>
        <pt x="297" y="367" on="1"/>
        <pt x="323" y="570" on="0"/>
        <pt x="327" y="591" on="1"/>
        <pt x="352" y="735" on="0"/>
        <pt x="424" y="782" on="1"/>
        <pt x="449" y="798" on="0"/>
        <pt x="479" y="804" on="1"/>
        <pt x="481" y="804" on="0"/>
        <pt x="496" y="805" on="0"/>
        <pt x="501" y="805" on="1"/>
        <pt x="548" y="802" on="0"/>
        <pt x="610" y="741" on="0"/>
        <pt x="610" y="695" on="1"/>
        <pt x="610" y="673" on="0"/>
        <pt x="582" y="645" on="0"/>
        <pt x="540" y="645" on="0"/>
        <pt x="512" y="674" on="0"/>
        <pt x="512" y="694" on="1"/>
        <pt x="512" y="724" on="0"/>
        <pt x="536" y="736" on="1"/>
        <pt x="537" y="737" on="0"/>
        <pt x="545" y="740" on="0"/>
        <pt x="548" y="742" on="1"/>
        <pt x="552" y="743" on="1"/>
        <pt x="552" y="748" on="0"/>
        <pt x="537" y="756" on="1"/>
        <pt x="520" y="768" on="0"/>
        <pt x="498" y="768" on="1"/>
        <pt x="454" y="768" on="0"/>
        <pt x="434" y="716" on="1"/>
        <pt x="422" y="687" on="0"/>
        <pt x="409" y="586" on="0"/>
        <pt x="399" y="452" on="1"/>
        <pt x="385" y="264" on="0"/>
        <pt x="369" y="133" on="1"/>
        <pt x="349" y="-39" on="0"/>
        <pt x="339" y="-91" on="1"/>
        <pt x="326" y="-162" on="0"/>
        <pt x="303" y="-207" on="1"/>
        <pt x="274" y="-269" on="0"/>
        <pt x="225" y="-293" on="1"/>
        <pt x="199" y="-306" on="0"/>
        <pt x="169" y="-306" on="1"/>
        <pt x="97" y="-306" on="0"/>
        <pt x="67" y="-244" on="1"/>
        <pt x="55" y="-223" on="0"/>
        <pt x="55" y="-196" on="1"/>
        <pt x="55" y="-174" on="0"/>
      </contour>
      <contour>
        <pt x="430" y="-146" on="0"/>
        <pt x="472" y="-146" on="0"/>
        <pt x="500" y="-175" on="0"/>
        <pt x="500" y="-195" on="1"/>
        <pt x="500" y="-225" on="0"/>
        <pt x="476" y="-237" on="1"/>
        <pt x="475" y="-238" on="0"/>
        <pt x="467" y="-241" on="0"/>
        <pt x="464" y="-242" on="1"/>
        <pt x="460" y="-244" on="1"/>
        <pt x="460" y="-245" on="0"/>
        <pt x="471" y="-255" on="0"/>
        <pt x="475" y="-257" on="1"/>
        <pt x="492" y="-269" on="0"/>
        <pt x="514" y="-269" on="1"/>
        <pt x="532" y="-269" on="0"/>
        <pt x="546" y="-260" on="1"/>
        <pt x="570" y="-246" on="0"/>
        <pt x="582" y="-208" on="1"/>
        <pt x="599" y="-160" on="0"/>
        <pt x="614" y="47" on="1"/>
        <pt x="628" y="237" on="0"/>
        <pt x="644" y="367" on="1"/>
        <pt x="670" y="570" on="0"/>
        <pt x="674" y="591" on="1"/>
        <pt x="699" y="735" on="0"/>
        <pt x="771" y="782" on="1"/>
        <pt x="796" y="798" on="0"/>
        <pt x="826" y="804" on="1"/>
        <pt x="828" y="804" on="0"/>
        <pt x="843" y="805" on="0"/>
        <pt x="848" y="805" on="1"/>
        <pt x="895" y="802" on="0"/>
        <pt x="957" y="741" on="0"/>
        <pt x="957" y="695" on="1"/>
        <pt x="957" y="673" on="0"/>
        <pt x="929" y="645" on="0"/>
        <pt x="887" y="645" on="0"/>
        <pt x="859" y="674" on="0"/>
        <pt x="859" y="694" on="1"/>
        <pt x="859" y="724" on="0"/>
        <pt x="883" y="736" on="1"/>
        <pt x="884" y="737" on="0"/>
        <pt x="892" y="740" on="0"/>
        <pt x="896" y="742" on="1"/>
        <pt x="899" y="743" on="1"/>
        <pt x="899" y="748" on="0"/>
        <pt x="884" y="756" on="1"/>
        <pt x="868" y="768" on="0"/>
        <pt x="845" y="768" on="1"/>
        <pt x="801" y="768" on="0"/>
        <pt x="781" y="716" on="1"/>
        <pt x="769" y="687" on="0"/>
        <pt x="756" y="586" on="0"/>
        <pt x="746" y="452" on="1"/>
        <pt x="732" y="264" on="0"/>
        <pt x="716" y="133" on="1"/>
        <pt x="696" y="-39" on="0"/>
        <pt x="686" y="-91" on="1"/>
        <pt x="673" y="-162" on="0"/>
        <pt x="650" y="-207" on="1"/>
        <pt x="621" y="-269" on="0"/>
        <pt x="572" y="-293" on="1"/>
        <pt x="546" y="-306" on="0"/>
        <pt x="516" y="-306" on="1"/>
        <pt x="444" y="-306" on="0"/>
        <pt x="414" y="-244" on="1"/>
        <pt x="402" y="-223" on="0"/>
        <pt x="402" y="-196" on="1"/>
        <pt x="402" y="-174" on="0"/>
      </contour>
      <contour>
        <pt x="777" y="-146" on="0"/>
        <pt x="819" y="-146" on="0"/>
        <pt x="847" y="-175" on="0"/>
        <pt x="847" y="-195" on="1"/>
        <pt x="847" y="-225" on="0"/>
        <pt x="823" y="-237" on="1"/>
        <pt x="822" y="-238" on="0"/>
        <pt x="814" y="-241" on="0"/>
        <pt x="810" y="-242" on="1"/>
        <pt x="807" y="-244" on="1"/>
        <pt x="807" y="-245" on="0"/>
        <pt x="818" y="-255" on="0"/>
        <pt x="822" y="-257" on="1"/>
        <pt x="838" y="-269" on="0"/>
        <pt x="861" y="-269" on="1"/>
        <pt x="880" y="-269" on="0"/>
        <pt x="893" y="-260" on="1"/>
        <pt x="917" y="-246" on="0"/>
        <pt x="929" y="-208" on="1"/>
        <pt x="946" y="-160" on="0"/>
        <pt x="961" y="47" on="1"/>
        <pt x="975" y="237" on="0"/>
        <pt x="991" y="367" on="1"/>
        <pt x="1017" y="570" on="0"/>
        <pt x="1021" y="591" on="1"/>
        <pt x="1046" y="735" on="0"/>
        <pt x="1118" y="782" on="1"/>
        <pt x="1143" y="798" on="0"/>
        <pt x="1173" y="804" on="1"/>
        <pt x="1175" y="804" on="0"/>
        <pt x="1190" y="805" on="0"/>
        <pt x="1195" y="805" on="1"/>
        <pt x="1242" y="802" on="0"/>
        <pt x="1304" y="741" on="0"/>
        <pt x="1304" y="695" on="1"/>
        <pt x="1304" y="673" on="0"/>
        <pt x="1276" y="645" on="0"/>
        <pt x="1234" y="645" on="0"/>
        <pt x="1206" y="674" on="0"/>
        <pt x="1206" y="694" on="1"/>
        <pt x="1206" y="724" on="0"/>
        <pt x="1230" y="736" on="1"/>
        <pt x="1231" y="737" on="0"/>
        <pt x="1239" y="740" on="0"/>
        <pt x="1242" y="742" on="1"/>
        <pt x="1246" y="743" on="1"/>
        <pt x="1246" y="748" on="0"/>
        <pt x="1231" y="756" on="1"/>
        <pt x="1214" y="768" on="0"/>
        <pt x="1192" y="768" on="1"/>
        <pt x="1148" y="768" on="0"/>
        <pt x="1128" y="716" on="1"/>
        <pt x="1116" y="687" on="0"/>
        <pt x="1103" y="586" on="0"/>
        <pt x="1093" y="452" on="1"/>
        <pt x="1079" y="264" on="0"/>
        <pt x="1063" y="133" on="1"/>
        <pt x="1043" y="-39" on="0"/>
        <pt x="1033" y="-91" on="1"/>
        <pt x="1020" y="-162" on="0"/>
        <pt x="997" y="-207" on="1"/>
        <pt x="968" y="-269" on="0"/>
        <pt x="919" y="-293" on="1"/>
        <pt x="893" y="-306" on="0"/>
        <pt x="863" y="-306" on="1"/>
        <pt x="791" y="-306" on="0"/>
        <pt x="761" y="-244" on="1"/>
        <pt x="749" y="-223" on="0"/>
        <pt x="749" y="-196" on="1"/>
        <pt x="749" y="-174" on="0"/>
      </contour>
    </TTGlyph>
    <TTGlyph name="uni222E" xMin="55" yMin="-306" xMax="610" yMax="805">
      <contour>
        <pt x="83" y="-146" on="0"/>
        <pt x="125" y="-146" on="0"/>
        <pt x="153" y="-175" on="0"/>
        <pt x="153" y="-195" on="1"/>
        <pt x="153" y="-225" on="0"/>
        <pt x="129" y="-237" on="1"/>
        <pt x="128" y="-238" on="0"/>
        <pt x="120" y="-241" on="0"/>
        <pt x="116" y="-242" on="1"/>
        <pt x="113" y="-244" on="1"/>
        <pt x="113" y="-245" on="0"/>
        <pt x="124" y="-255" on="0"/>
        <pt x="128" y="-257" on="1"/>
        <pt x="144" y="-269" on="0"/>
        <pt x="167" y="-269" on="1"/>
        <pt x="186" y="-269" on="0"/>
        <pt x="199" y="-260" on="1"/>
        <pt x="223" y="-246" on="0"/>
        <pt x="235" y="-208" on="1"/>
        <pt x="251" y="-163" on="0"/>
        <pt x="266" y="33" on="1"/>
        <pt x="269" y="74" on="1"/>
        <pt x="264" y="76" on="1"/>
        <pt x="260" y="79" on="0"/>
        <pt x="247" y="84" on="0"/>
        <pt x="246" y="85" on="1"/>
        <pt x="179" y="119" on="0"/>
        <pt x="156" y="192" on="1"/>
        <pt x="148" y="216" on="0"/>
        <pt x="148" y="250" on="1"/>
        <pt x="148" y="283" on="0"/>
        <pt x="156" y="307" on="1"/>
        <pt x="182" y="390" on="0"/>
        <pt x="265" y="423" on="1"/>
        <pt x="270" y="425" on="0"/>
        <pt x="285" y="429" on="0"/>
        <pt x="302" y="433" on="0"/>
        <pt x="306" y="434" on="1"/>
        <pt x="307" y="444" on="1"/>
        <pt x="308" y="449" on="0"/>
        <pt x="318" y="524" on="0"/>
        <pt x="326" y="586" on="0"/>
        <pt x="327" y="591" on="1"/>
        <pt x="352" y="735" on="0"/>
        <pt x="424" y="782" on="1"/>
        <pt x="449" y="798" on="0"/>
        <pt x="479" y="804" on="1"/>
        <pt x="481" y="804" on="0"/>
        <pt x="496" y="805" on="0"/>
        <pt x="501" y="805" on="1"/>
        <pt x="548" y="802" on="0"/>
        <pt x="610" y="741" on="0"/>
        <pt x="610" y="695" on="1"/>
        <pt x="610" y="673" on="0"/>
        <pt x="582" y="645" on="0"/>
        <pt x="540" y="645" on="0"/>
        <pt x="512" y="674" on="0"/>
        <pt x="512" y="694" on="1"/>
        <pt x="512" y="724" on="0"/>
        <pt x="536" y="736" on="1"/>
        <pt x="537" y="737" on="0"/>
        <pt x="545" y="740" on="0"/>
        <pt x="548" y="742" on="1"/>
        <pt x="552" y="743" on="1"/>
        <pt x="552" y="748" on="0"/>
        <pt x="537" y="756" on="1"/>
        <pt x="520" y="768" on="0"/>
        <pt x="498" y="768" on="1"/>
        <pt x="454" y="768" on="0"/>
        <pt x="434" y="716" on="1"/>
        <pt x="415" y="672" on="0"/>
        <pt x="405" y="527" on="1"/>
        <pt x="397" y="425" on="1"/>
        <pt x="397" y="423" on="0"/>
        <pt x="420" y="414" on="1"/>
        <pt x="487" y="380" on="0"/>
        <pt x="510" y="307" on="1"/>
        <pt x="518" y="283" on="0"/>
        <pt x="518" y="250" on="1"/>
        <pt x="518" y="216" on="0"/>
        <pt x="510" y="192" on="1"/>
        <pt x="484" y="109" on="0"/>
        <pt x="401" y="76" on="1"/>
        <pt x="396" y="74" on="0"/>
        <pt x="381" y="70" on="0"/>
        <pt x="364" y="66" on="0"/>
        <pt x="360" y="65" on="1"/>
        <pt x="359" y="55" on="1"/>
        <pt x="357" y="41" on="0"/>
        <pt x="346" y="-46" on="0"/>
        <pt x="340" y="-81" on="0"/>
        <pt x="328" y="-144" on="0"/>
        <pt x="313" y="-187" on="0"/>
        <pt x="303" y="-207" on="1"/>
        <pt x="274" y="-269" on="0"/>
        <pt x="225" y="-293" on="1"/>
        <pt x="199" y="-306" on="0"/>
        <pt x="169" y="-306" on="1"/>
        <pt x="97" y="-306" on="0"/>
        <pt x="67" y="-244" on="1"/>
        <pt x="55" y="-223" on="0"/>
        <pt x="55" y="-196" on="1"/>
        <pt x="55" y="-174" on="0"/>
      </contour>
      <contour>
        <pt x="300" y="391" on="1"/>
        <pt x="300" y="392" on="0"/>
        <pt x="299" y="392" on="1"/>
        <pt x="298" y="392" on="0"/>
        <pt x="297" y="391" on="1"/>
        <pt x="294" y="390" on="0"/>
        <pt x="292" y="390" on="1"/>
        <pt x="248" y="378" on="0"/>
        <pt x="187" y="301" on="0"/>
        <pt x="187" y="249" on="1"/>
        <pt x="187" y="203" on="0"/>
        <pt x="235" y="135" on="0"/>
        <pt x="272" y="116" on="1"/>
        <pt x="272" y="122" on="1"/>
        <pt x="273" y="126" on="0"/>
        <pt x="275" y="154" on="1"/>
        <pt x="280" y="222" on="0"/>
      </contour>
      <contour>
        <pt x="479" y="249" on="1"/>
        <pt x="479" y="292" on="0"/>
        <pt x="434" y="363" on="0"/>
        <pt x="402" y="379" on="1"/>
        <pt x="394" y="383" on="1"/>
        <pt x="394" y="377" on="1"/>
        <pt x="393" y="373" on="0"/>
        <pt x="391" y="346" on="1"/>
        <pt x="385" y="274" on="0"/>
        <pt x="369" y="133" on="1"/>
        <pt x="366" y="112" on="0"/>
        <pt x="366" y="107" on="1"/>
        <pt x="372" y="107" on="0"/>
        <pt x="388" y="114" on="1"/>
        <pt x="426" y="128" on="0"/>
        <pt x="479" y="202" on="0"/>
      </contour>
    </TTGlyph>
    <TTGlyph name="uni22C0" xMin="55" yMin="-249" xMax="777" yMax="750">
      <contour>
        <pt x="97" y="-249" on="1"/>
        <pt x="78" y="-249" on="0"/>
        <pt x="55" y="-224" on="0"/>
        <pt x="55" y="-207" on="1"/>
        <pt x="55" y="-201" on="0"/>
        <pt x="56" y="-198" on="1"/>
        <pt x="58" y="-190" on="0"/>
        <pt x="378" y="726" on="0"/>
        <pt x="380" y="729" on="1"/>
        <pt x="391" y="750" on="0"/>
        <pt x="416" y="750" on="1"/>
        <pt x="438" y="750" on="0"/>
        <pt x="451" y="732" on="1"/>
        <pt x="453" y="728" on="0"/>
        <pt x="615" y="267" on="0"/>
        <pt x="695" y="36" on="1"/>
        <pt x="775" y="-194" on="1"/>
        <pt x="777" y="-204" on="0"/>
        <pt x="777" y="-208" on="1"/>
        <pt x="777" y="-225" on="0"/>
        <pt x="753" y="-249" on="0"/>
        <pt x="735" y="-249" on="1"/>
        <pt x="713" y="-249" on="0"/>
        <pt x="700" y="-231" on="1"/>
        <pt x="698" y="-228" on="0"/>
        <pt x="662" y="-126" on="1"/>
        <pt x="557" y="178" on="0"/>
        <pt x="416" y="579" on="1"/>
        <pt x="138" y="-224" on="0"/>
        <pt x="132" y="-231" on="1"/>
        <pt x="119" y="-249" on="0"/>
      </contour>
    </TTGlyph>
    <TTGlyph name="uni22C1" xMin="55" yMin="-249" xMax="777" yMax="750">
      <contour>
        <pt x="55" y="708" on="1"/>
        <pt x="55" y="726" on="0"/>
        <pt x="78" y="750" on="0"/>
        <pt x="96" y="750" on="1"/>
        <pt x="118" y="750" on="0"/>
        <pt x="132" y="731" on="1"/>
        <pt x="135" y="727" on="0"/>
        <pt x="416" y="-79" on="1"/>
        <pt x="477" y="95" on="0"/>
        <pt x="584" y="401" on="0"/>
        <pt x="640" y="562" on="0"/>
        <pt x="682" y="684" on="0"/>
        <pt x="698" y="728" on="0"/>
        <pt x="700" y="731" on="1"/>
        <pt x="713" y="749" on="0"/>
        <pt x="735" y="749" on="1"/>
        <pt x="753" y="749" on="0"/>
        <pt x="777" y="725" on="0"/>
        <pt x="777" y="708" on="1"/>
        <pt x="777" y="704" on="0"/>
        <pt x="775" y="694" on="1"/>
        <pt x="695" y="464" on="1"/>
        <pt x="615" y="233" on="0"/>
        <pt x="453" y="-228" on="0"/>
        <pt x="451" y="-232" on="1"/>
        <pt x="437" y="-249" on="0"/>
        <pt x="416" y="-249" on="1"/>
        <pt x="402" y="-249" on="0"/>
        <pt x="391" y="-241" on="1"/>
        <pt x="384" y="-236" on="0"/>
        <pt x="380" y="-226" on="1"/>
        <pt x="368" y="-198" on="0"/>
        <pt x="219" y="230" on="1"/>
        <pt x="182" y="335" on="0"/>
        <pt x="99" y="575" on="0"/>
        <pt x="58" y="692" on="0"/>
        <pt x="57" y="694" on="1"/>
        <pt x="55" y="704" on="0"/>
      </contour>
    </TTGlyph>
    <TTGlyph name="uni22C2" xMin="55" yMin="-249" xMax="777" yMax="750">
      <contour>
        <pt x="139" y="-217" on="1"/>
        <pt x="124" y="-249" on="0"/>
        <pt x="97" y="-249" on="1"/>
        <pt x="66" y="-249" on="0"/>
        <pt x="57" y="-220" on="1"/>
        <pt x="55" y="-214" on="0"/>
        <pt x="55" y="102" on="1"/>
        <pt x="55" y="422" on="0"/>
        <pt x="56" y="430" on="1"/>
        <pt x="68" y="561" on="0"/>
        <pt x="251" y="735" on="0"/>
        <pt x="378" y="748" on="1"/>
        <pt x="383" y="749" on="0"/>
        <pt x="392" y="749" on="1"/>
        <pt x="393" y="750" on="0"/>
        <pt x="402" y="750" on="1"/>
        <pt x="414" y="750" on="0"/>
        <pt x="422" y="749" on="1"/>
        <pt x="467" y="749" on="0"/>
        <pt x="512" y="738" on="1"/>
        <pt x="610" y="712" on="0"/>
        <pt x="680" y="640" on="1"/>
        <pt x="766" y="551" on="0"/>
        <pt x="776" y="430" on="1"/>
        <pt x="777" y="422" on="0"/>
        <pt x="777" y="102" on="1"/>
        <pt x="777" y="-214" on="0"/>
        <pt x="775" y="-220" on="1"/>
        <pt x="766" y="-249" on="0"/>
        <pt x="735" y="-249" on="1"/>
        <pt x="705" y="-249" on="0"/>
        <pt x="694" y="-217" on="1"/>
        <pt x="694" y="-109" on="0"/>
        <pt x="692" y="321" on="0"/>
        <pt x="692" y="428" on="1"/>
        <pt x="690" y="441" on="1"/>
        <pt x="676" y="523" on="0"/>
        <pt x="620" y="581" on="1"/>
        <pt x="535" y="666" on="0"/>
        <pt x="416" y="666" on="1"/>
        <pt x="349" y="666" on="0"/>
        <pt x="287" y="635" on="1"/>
        <pt x="230" y="607" on="0"/>
        <pt x="153" y="506" on="0"/>
        <pt x="142" y="441" on="1"/>
        <pt x="140" y="428" on="1"/>
        <pt x="139" y="105" on="1"/>
      </contour>
    </TTGlyph>
    <TTGlyph name="uni22C3" xMin="55" yMin="-249" xMax="777" yMax="750">
      <contour>
        <pt x="70" y="740" on="1"/>
        <pt x="80" y="750" on="0"/>
        <pt x="96" y="750" on="1"/>
        <pt x="125" y="750" on="0"/>
        <pt x="136" y="723" on="1"/>
        <pt x="139" y="718" on="1"/>
        <pt x="139" y="395" on="1"/>
        <pt x="140" y="73" on="1"/>
        <pt x="142" y="60" on="1"/>
        <pt x="157" y="-29" on="0"/>
        <pt x="285" y="-151" on="0"/>
        <pt x="379" y="-164" on="1"/>
        <pt x="397" y="-166" on="0"/>
        <pt x="416" y="-166" on="1"/>
        <pt x="535" y="-166" on="0"/>
        <pt x="620" y="-81" on="1"/>
        <pt x="676" y="-23" on="0"/>
        <pt x="690" y="60" on="1"/>
        <pt x="692" y="73" on="1"/>
        <pt x="692" y="181" on="0"/>
        <pt x="694" y="611" on="0"/>
        <pt x="694" y="718" on="1"/>
        <pt x="707" y="749" on="0"/>
        <pt x="735" y="749" on="1"/>
        <pt x="766" y="749" on="0"/>
        <pt x="775" y="720" on="1"/>
        <pt x="777" y="714" on="0"/>
        <pt x="777" y="398" on="1"/>
        <pt x="777" y="78" on="0"/>
        <pt x="776" y="71" on="1"/>
        <pt x="766" y="-51" on="0"/>
        <pt x="680" y="-140" on="1"/>
        <pt x="605" y="-215" on="0"/>
        <pt x="506" y="-239" on="1"/>
        <pt x="466" y="-249" on="0"/>
        <pt x="366" y="-249" on="0"/>
        <pt x="327" y="-239" on="1"/>
        <pt x="227" y="-215" on="0"/>
        <pt x="152" y="-140" on="1"/>
        <pt x="66" y="-51" on="0"/>
        <pt x="56" y="71" on="1"/>
        <pt x="55" y="78" on="0"/>
        <pt x="55" y="398" on="1"/>
        <pt x="55" y="714" on="0"/>
        <pt x="57" y="720" on="1"/>
        <pt x="60" y="734" on="0"/>
      </contour>
    </TTGlyph>
    <TTGlyph name="uni2308" xMin="202" yMin="-349" xMax="449" yMax="850">
      <contour>
        <pt x="202" y="-349" on="1"/>
        <pt x="202" y="850" on="1"/>
        <pt x="449" y="850" on="1"/>
        <pt x="449" y="810" on="1"/>
        <pt x="242" y="810" on="1"/>
        <pt x="242" y="-349" on="1"/>
      </contour>
    </TTGlyph>
    <TTGlyph name="uni2309" xMin="22" yMin="-349" xMax="269" yMax="850">
      <contour>
        <pt x="22" y="810" on="1"/>
        <pt x="22" y="850" on="1"/>
        <pt x="269" y="850" on="1"/>
        <pt x="269" y="-349" on="1"/>
        <pt x="229" y="-349" on="1"/>
        <pt x="229" y="810" on="1"/>
      </contour>
    </TTGlyph>
    <TTGlyph name="uni230A" xMin="202" yMin="-349" xMax="449" yMax="850">
      <contour>
        <pt x="202" y="-349" on="1"/>
        <pt x="202" y="850" on="1"/>
        <pt x="242" y="850" on="1"/>
        <pt x="242" y="-309" on="1"/>
        <pt x="449" y="-309" on="1"/>
        <pt x="449" y="-349" on="1"/>
      </contour>
    </TTGlyph>
    <TTGlyph name="uni230B" xMin="22" yMin="-349" xMax="269" yMax="850">
      <contour>
        <pt x="229" y="-309" on="1"/>
        <pt x="229" y="850" on="1"/>
        <pt x="269" y="850" on="1"/>
        <pt x="269" y="-349" on="1"/>
        <pt x="22" y="-349" on="1"/>
        <pt x="22" y="-309" on="1"/>
      </contour>
    </TTGlyph>
    <TTGlyph name="uni23D0" xMin="312" yMin="0" xMax="355" yMax="602">
      <contour>
        <pt x="312" y="0" on="1"/>
        <pt x="312" y="602" on="1"/>
        <pt x="355" y="602" on="1"/>
        <pt x="355" y="0" on="1"/>
      </contour>
    </TTGlyph>
    <TTGlyph name="uni27E8" xMin="97" yMin="-350" xMax="394" yMax="850">
      <contour>
        <pt x="373" y="850" on="1"/>
        <pt x="392" y="850" on="0"/>
        <pt x="394" y="832" on="1"/>
        <pt x="394" y="825" on="0"/>
        <pt x="267" y="538" on="1"/>
        <pt x="139" y="250" on="1"/>
        <pt x="267" y="-38" on="1"/>
        <pt x="394" y="-325" on="0"/>
        <pt x="394" y="-332" on="1"/>
        <pt x="392" y="-350" on="0"/>
        <pt x="375" y="-350" on="1"/>
        <pt x="362" y="-350" on="0"/>
        <pt x="356" y="-338" on="1"/>
        <pt x="354" y="-331" on="0"/>
        <pt x="224" y="-40" on="0"/>
        <pt x="97" y="246" on="0"/>
        <pt x="97" y="254" on="0"/>
        <pt x="224" y="540" on="0"/>
        <pt x="354" y="831" on="0"/>
        <pt x="356" y="838" on="1"/>
        <pt x="363" y="850" on="0"/>
      </contour>
    </TTGlyph>
    <TTGlyph name="uni27E9" xMin="77" yMin="-350" xMax="374" yMax="850">
      <contour>
        <pt x="77" y="832" on="1"/>
        <pt x="79" y="850" on="0"/>
        <pt x="98" y="850" on="1"/>
        <pt x="110" y="849" on="0"/>
        <pt x="115" y="838" on="1"/>
        <pt x="117" y="831" on="0"/>
        <pt x="247" y="540" on="0"/>
        <pt x="374" y="254" on="0"/>
        <pt x="374" y="246" on="0"/>
        <pt x="247" y="-40" on="0"/>
        <pt x="117" y="-331" on="0"/>
        <pt x="115" y="-338" on="1"/>
        <pt x="109" y="-350" on="0"/>
        <pt x="96" y="-350" on="1"/>
        <pt x="79" y="-350" on="0"/>
        <pt x="77" y="-332" on="1"/>
        <pt x="77" y="-325" on="0"/>
        <pt x="204" y="-38" on="1"/>
        <pt x="332" y="250" on="1"/>
        <pt x="204" y="538" on="1"/>
        <pt x="77" y="825" on="0"/>
      </contour>
    </TTGlyph>
    <TTGlyph name="uni2A00" xMin="56" yMin="-250" xMax="1054" yMax="750">
      <contour>
        <pt x="372" y="715" on="1"/>
        <pt x="461" y="750" on="0"/>
        <pt x="539" y="750" on="1"/>
        <pt x="554" y="750" on="0"/>
        <pt x="562" y="749" on="1"/>
        <pt x="607" y="749" on="0"/>
        <pt x="641" y="742" on="1"/>
        <pt x="758" y="722" on="0"/>
        <pt x="950" y="579" on="0"/>
        <pt x="1003" y="473" on="1"/>
        <pt x="1041" y="394" on="0"/>
        <pt x="1053" y="300" on="1"/>
        <pt x="1054" y="289" on="0"/>
        <pt x="1054" y="250" on="1"/>
        <pt x="1054" y="150" on="0"/>
        <pt x="1020" y="66" on="1"/>
        <pt x="982" y="-31" on="0"/>
        <pt x="836" y="-177" on="0"/>
        <pt x="739" y="-215" on="1"/>
        <pt x="651" y="-250" on="0"/>
        <pt x="555" y="-250" on="1"/>
        <pt x="457" y="-250" on="0"/>
        <pt x="372" y="-215" on="1"/>
        <pt x="275" y="-177" on="0"/>
        <pt x="128" y="-31" on="0"/>
        <pt x="90" y="66" on="1"/>
        <pt x="56" y="150" on="0"/>
        <pt x="56" y="250" on="1"/>
        <pt x="56" y="348" on="0"/>
        <pt x="90" y="434" on="1"/>
        <pt x="128" y="531" on="0"/>
        <pt x="275" y="677" on="0"/>
      </contour>
      <contour>
        <pt x="970" y="250" on="1"/>
        <pt x="970" y="418" on="0"/>
        <pt x="755" y="646" on="0"/>
        <pt x="600" y="664" on="1"/>
        <pt x="591" y="665" on="0"/>
        <pt x="548" y="665" on="1"/>
        <pt x="526" y="665" on="0"/>
        <pt x="486" y="660" on="1"/>
        <pt x="351" y="637" on="0"/>
        <pt x="159" y="439" on="0"/>
        <pt x="141" y="294" on="1"/>
        <pt x="140" y="284" on="0"/>
        <pt x="140" y="216" on="0"/>
        <pt x="141" y="206" on="1"/>
        <pt x="158" y="69" on="0"/>
        <pt x="248" y="-30" on="1"/>
        <pt x="341" y="-135" on="0"/>
        <pt x="482" y="-159" on="1"/>
        <pt x="514" y="-165" on="0"/>
        <pt x="555" y="-165" on="1"/>
        <pt x="610" y="-165" on="0"/>
        <pt x="654" y="-154" on="1"/>
        <pt x="772" y="-124" on="0"/>
        <pt x="943" y="53" on="0"/>
        <pt x="964" y="177" on="1"/>
        <pt x="970" y="209" on="0"/>
      </contour>
      <contour>
        <pt x="478" y="250" on="1"/>
        <pt x="478" y="282" on="0"/>
        <pt x="521" y="326" on="0"/>
        <pt x="551" y="326" on="1"/>
        <pt x="587" y="326" on="0"/>
        <pt x="632" y="285" on="0"/>
        <pt x="632" y="250" on="1"/>
        <pt x="632" y="216" on="0"/>
        <pt x="589" y="174" on="0"/>
        <pt x="521" y="174" on="0"/>
        <pt x="478" y="216" on="0"/>
      </contour>
    </TTGlyph>
    <TTGlyph name="uni2A01" xMin="56" yMin="-250" xMax="1054" yMax="750">
      <contour>
        <pt x="372" y="715" on="1"/>
        <pt x="461" y="750" on="0"/>
        <pt x="539" y="750" on="1"/>
        <pt x="554" y="750" on="0"/>
        <pt x="562" y="749" on="1"/>
        <pt x="607" y="749" on="0"/>
        <pt x="641" y="742" on="1"/>
        <pt x="758" y="722" on="0"/>
        <pt x="950" y="579" on="0"/>
        <pt x="1003" y="473" on="1"/>
        <pt x="1041" y="394" on="0"/>
        <pt x="1053" y="300" on="1"/>
        <pt x="1054" y="289" on="0"/>
        <pt x="1054" y="250" on="1"/>
        <pt x="1054" y="150" on="0"/>
        <pt x="1020" y="66" on="1"/>
        <pt x="982" y="-31" on="0"/>
        <pt x="836" y="-177" on="0"/>
        <pt x="739" y="-215" on="1"/>
        <pt x="651" y="-250" on="0"/>
        <pt x="555" y="-250" on="1"/>
        <pt x="457" y="-250" on="0"/>
        <pt x="372" y="-215" on="1"/>
        <pt x="275" y="-177" on="0"/>
        <pt x="128" y="-31" on="0"/>
        <pt x="90" y="66" on="1"/>
        <pt x="56" y="150" on="0"/>
        <pt x="56" y="250" on="1"/>
        <pt x="56" y="348" on="0"/>
        <pt x="90" y="434" on="1"/>
        <pt x="128" y="531" on="0"/>
        <pt x="275" y="677" on="0"/>
      </contour>
      <contour>
        <pt x="513" y="478" on="1"/>
        <pt x="513" y="664" on="0"/>
        <pt x="512" y="664" on="1"/>
        <pt x="509" y="664" on="0"/>
        <pt x="507" y="663" on="1"/>
        <pt x="403" y="653" on="0"/>
        <pt x="313" y="588" on="1"/>
        <pt x="164" y="479" on="0"/>
        <pt x="142" y="297" on="1"/>
        <pt x="141" y="292" on="1"/>
        <pt x="513" y="292" on="1"/>
      </contour>
      <contour>
        <pt x="622" y="660" on="1"/>
        <pt x="610" y="663" on="0"/>
        <pt x="602" y="663" on="1"/>
        <pt x="597" y="664" on="1"/>
        <pt x="597" y="292" on="1"/>
        <pt x="969" y="292" on="1"/>
        <pt x="968" y="297" on="1"/>
        <pt x="946" y="479" on="0"/>
        <pt x="798" y="588" on="1"/>
        <pt x="716" y="646" on="0"/>
      </contour>
      <contour>
        <pt x="513" y="-164" on="1"/>
        <pt x="513" y="208" on="1"/>
        <pt x="141" y="208" on="1"/>
        <pt x="142" y="203" on="1"/>
        <pt x="156" y="82" on="0"/>
        <pt x="229" y="-9" on="1"/>
        <pt x="281" y="-73" on="0"/>
        <pt x="425" y="-153" on="0"/>
        <pt x="508" y="-163" on="1"/>
      </contour>
      <contour>
        <pt x="968" y="203" on="1"/>
        <pt x="969" y="208" on="1"/>
        <pt x="597" y="208" on="1"/>
        <pt x="597" y="-164" on="1"/>
        <pt x="602" y="-163" on="1"/>
        <pt x="750" y="-146" on="0"/>
        <pt x="951" y="61" on="0"/>
      </contour>
    </TTGlyph>
    <TTGlyph name="uni2A02" xMin="56" yMin="-250" xMax="1054" yMax="750">
      <contour>
        <pt x="372" y="715" on="1"/>
        <pt x="461" y="750" on="0"/>
        <pt x="539" y="750" on="1"/>
        <pt x="554" y="750" on="0"/>
        <pt x="562" y="749" on="1"/>
        <pt x="607" y="749" on="0"/>
        <pt x="641" y="742" on="1"/>
        <pt x="758" y="722" on="0"/>
        <pt x="950" y="579" on="0"/>
        <pt x="1003" y="473" on="1"/>
        <pt x="1041" y="394" on="0"/>
        <pt x="1053" y="300" on="1"/>
        <pt x="1054" y="289" on="0"/>
        <pt x="1054" y="250" on="1"/>
        <pt x="1054" y="150" on="0"/>
        <pt x="1020" y="66" on="1"/>
        <pt x="982" y="-31" on="0"/>
        <pt x="836" y="-177" on="0"/>
        <pt x="739" y="-215" on="1"/>
        <pt x="651" y="-250" on="0"/>
        <pt x="555" y="-250" on="1"/>
        <pt x="457" y="-250" on="0"/>
        <pt x="372" y="-215" on="1"/>
        <pt x="275" y="-177" on="0"/>
        <pt x="128" y="-31" on="0"/>
        <pt x="90" y="66" on="1"/>
        <pt x="56" y="150" on="0"/>
        <pt x="56" y="250" on="1"/>
        <pt x="56" y="348" on="0"/>
        <pt x="90" y="434" on="1"/>
        <pt x="128" y="531" on="0"/>
        <pt x="275" y="677" on="0"/>
      </contour>
      <contour>
        <pt x="600" y="664" on="1"/>
        <pt x="591" y="665" on="0"/>
        <pt x="548" y="665" on="1"/>
        <pt x="526" y="665" on="0"/>
        <pt x="486" y="660" on="1"/>
        <pt x="385" y="643" on="0"/>
        <pt x="306" y="583" on="1"/>
        <pt x="292" y="573" on="1"/>
        <pt x="423" y="441" on="0"/>
        <pt x="555" y="310" on="1"/>
        <pt x="687" y="441" on="0"/>
        <pt x="818" y="573" on="1"/>
        <pt x="804" y="583" on="1"/>
        <pt x="714" y="650" on="0"/>
      </contour>
      <contour>
        <pt x="232" y="-13" on="1"/>
        <pt x="364" y="118" on="0"/>
        <pt x="495" y="250" on="1"/>
        <pt x="364" y="382" on="0"/>
        <pt x="232" y="513" on="1"/>
        <pt x="223" y="500" on="1"/>
        <pt x="154" y="411" on="0"/>
        <pt x="141" y="294" on="1"/>
        <pt x="140" y="284" on="0"/>
        <pt x="140" y="216" on="0"/>
        <pt x="141" y="206" on="1"/>
        <pt x="154" y="89" on="0"/>
        <pt x="223" y="0" on="1"/>
      </contour>
      <contour>
        <pt x="887" y="501" on="1"/>
        <pt x="878" y="512" on="1"/>
        <pt x="878" y="513" on="0"/>
        <pt x="843" y="478" on="0"/>
        <pt x="780" y="415" on="0"/>
        <pt x="746" y="381" on="1"/>
        <pt x="615" y="250" on="1"/>
        <pt x="746" y="118" on="0"/>
        <pt x="878" y="-13" on="1"/>
        <pt x="887" y="0" on="1"/>
        <pt x="956" y="89" on="0"/>
        <pt x="969" y="206" on="1"/>
        <pt x="970" y="216" on="0"/>
        <pt x="970" y="284" on="0"/>
        <pt x="969" y="294" on="1"/>
        <pt x="955" y="410" on="0"/>
      </contour>
      <contour>
        <pt x="687" y="59" on="1"/>
        <pt x="555" y="190" on="1"/>
        <pt x="495" y="131" on="0"/>
        <pt x="423" y="59" on="1"/>
        <pt x="292" y="-73" on="1"/>
        <pt x="306" y="-83" on="1"/>
        <pt x="396" y="-151" on="0"/>
        <pt x="511" y="-164" on="1"/>
        <pt x="531" y="-166" on="0"/>
        <pt x="579" y="-166" on="0"/>
        <pt x="599" y="-164" on="1"/>
        <pt x="714" y="-151" on="0"/>
        <pt x="804" y="-83" on="1"/>
        <pt x="818" y="-73" on="1"/>
      </contour>
    </TTGlyph>
    <TTGlyph name="uni2A04" xMin="55" yMin="-249" xMax="777" yMax="750">
      <contour>
        <pt x="70" y="740" on="1"/>
        <pt x="80" y="750" on="0"/>
        <pt x="96" y="750" on="1"/>
        <pt x="125" y="750" on="0"/>
        <pt x="136" y="723" on="1"/>
        <pt x="139" y="718" on="1"/>
        <pt x="139" y="395" on="1"/>
        <pt x="140" y="73" on="1"/>
        <pt x="142" y="60" on="1"/>
        <pt x="157" y="-29" on="0"/>
        <pt x="285" y="-151" on="0"/>
        <pt x="379" y="-164" on="1"/>
        <pt x="397" y="-166" on="0"/>
        <pt x="416" y="-166" on="1"/>
        <pt x="535" y="-166" on="0"/>
        <pt x="620" y="-81" on="1"/>
        <pt x="676" y="-23" on="0"/>
        <pt x="690" y="60" on="1"/>
        <pt x="692" y="73" on="1"/>
        <pt x="692" y="181" on="0"/>
        <pt x="694" y="611" on="0"/>
        <pt x="694" y="718" on="1"/>
        <pt x="707" y="749" on="0"/>
        <pt x="735" y="749" on="1"/>
        <pt x="766" y="749" on="0"/>
        <pt x="775" y="720" on="1"/>
        <pt x="777" y="714" on="0"/>
        <pt x="777" y="398" on="1"/>
        <pt x="777" y="78" on="0"/>
        <pt x="776" y="71" on="1"/>
        <pt x="766" y="-51" on="0"/>
        <pt x="680" y="-140" on="1"/>
        <pt x="605" y="-215" on="0"/>
        <pt x="506" y="-239" on="1"/>
        <pt x="466" y="-249" on="0"/>
        <pt x="366" y="-249" on="0"/>
        <pt x="327" y="-239" on="1"/>
        <pt x="227" y="-215" on="0"/>
        <pt x="152" y="-140" on="1"/>
        <pt x="66" y="-51" on="0"/>
        <pt x="56" y="71" on="1"/>
        <pt x="55" y="78" on="0"/>
        <pt x="55" y="398" on="1"/>
        <pt x="55" y="714" on="0"/>
        <pt x="57" y="720" on="1"/>
        <pt x="60" y="734" on="0"/>
      </contour>
      <contour>
        <pt x="223" y="276" on="1"/>
        <pt x="223" y="302" on="0"/>
        <pt x="254" y="319" on="1"/>
        <pt x="374" y="319" on="1"/>
        <pt x="374" y="376" on="1"/>
        <pt x="374" y="438" on="0"/>
        <pt x="379" y="448" on="1"/>
        <pt x="386" y="459" on="0"/>
        <pt x="394" y="464" on="1"/>
        <pt x="400" y="470" on="0"/>
        <pt x="418" y="470" on="1"/>
        <pt x="443" y="467" on="0"/>
        <pt x="453" y="448" on="1"/>
        <pt x="458" y="438" on="0"/>
        <pt x="458" y="376" on="1"/>
        <pt x="458" y="319" on="1"/>
        <pt x="579" y="319" on="1"/>
        <pt x="585" y="315" on="1"/>
        <pt x="609" y="303" on="0"/>
        <pt x="609" y="276" on="1"/>
        <pt x="609" y="252" on="0"/>
        <pt x="587" y="241" on="1"/>
        <pt x="577" y="235" on="0"/>
        <pt x="513" y="235" on="1"/>
        <pt x="458" y="235" on="1"/>
        <pt x="458" y="178" on="1"/>
        <pt x="458" y="120" on="0"/>
        <pt x="457" y="117" on="1"/>
        <pt x="454" y="103" on="0"/>
        <pt x="431" y="84" on="0"/>
        <pt x="415" y="84" on="1"/>
        <pt x="401" y="84" on="0"/>
        <pt x="378" y="103" on="0"/>
        <pt x="375" y="117" on="1"/>
        <pt x="374" y="120" on="0"/>
        <pt x="374" y="178" on="1"/>
        <pt x="374" y="235" on="1"/>
        <pt x="319" y="235" on="1"/>
        <pt x="255" y="235" on="0"/>
        <pt x="245" y="241" on="1"/>
        <pt x="223" y="252" on="0"/>
      </contour>
    </TTGlyph>
    <TTGlyph name="uni2A06" xMin="55" yMin="-249" xMax="777" yMax="750">
      <contour>
        <pt x="777" y="-217" on="1"/>
        <pt x="766" y="-244" on="0"/>
        <pt x="745" y="-249" on="1"/>
        <pt x="88" y="-249" on="1"/>
        <pt x="64" y="-241" on="0"/>
        <pt x="57" y="-220" on="1"/>
        <pt x="55" y="-214" on="0"/>
        <pt x="55" y="714" on="0"/>
        <pt x="57" y="720" on="1"/>
        <pt x="60" y="734" on="0"/>
        <pt x="70" y="740" on="1"/>
        <pt x="80" y="750" on="0"/>
        <pt x="96" y="750" on="1"/>
        <pt x="126" y="750" on="0"/>
        <pt x="137" y="720" on="1"/>
        <pt x="139" y="714" on="0"/>
        <pt x="139" y="274" on="1"/>
        <pt x="139" y="-166" on="1"/>
        <pt x="693" y="-166" on="1"/>
        <pt x="693" y="274" on="1"/>
        <pt x="693" y="714" on="0"/>
        <pt x="695" y="720" on="1"/>
        <pt x="704" y="749" on="0"/>
        <pt x="735" y="749" on="1"/>
        <pt x="768" y="749" on="0"/>
        <pt x="775" y="719" on="1"/>
        <pt x="777" y="713" on="0"/>
        <pt x="777" y="248" on="1"/>
      </contour>
    </TTGlyph>
    <TTGlyph name="uniEFFD" xMin="0" yMin="0" xMax="300" yMax="100">
      <contour>
        <pt x="0" y="0" on="1"/>
        <pt x="0" y="100" on="1"/>
        <pt x="100" y="100" on="1"/>
        <pt x="100" y="0" on="1"/>
      </contour>
      <contour>
        <pt x="200" y="0" on="1"/>
        <pt x="200" y="100" on="1"/>
        <pt x="300" y="100" on="1"/>
        <pt x="300" y="0" on="1"/>
      </contour>
    </TTGlyph>
    <TTGlyph name="uniEFFE" xMin="0" yMin="0" xMax="300" yMax="100">
      <contour>
        <pt x="0" y="0" on="1"/>
        <pt x="0" y="100" on="1"/>
        <pt x="100" y="100" on="1"/>
        <pt x="100" y="0" on="1"/>
      </contour>
      <contour>
        <pt x="200" y="0" on="1"/>
        <pt x="200" y="100" on="1"/>
        <pt x="300" y="100" on="1"/>
        <pt x="300" y="0" on="1"/>
      </contour>
    </TTGlyph>
    <TTGlyph name="uniEFFF" xMin="0" yMin="0" xMax="100" yMax="100">
      <contour>
        <pt x="0" y="0" on="1"/>
        <pt x="0" y="100" on="1"/>
        <pt x="100" y="100" on="1"/>
        <pt x="100" y="0" on="1"/>
      </contour>
    </TTGlyph>
</ttFont>
